<svg width="156" height="22" viewBox="0 0 156 22" fill="none" xmlns="http://www.w3.org/2000/svg">
<path d="M31.4096 2.4233C32.6107 2.4233 33.5948 2.5899 34.362 2.92312C35.137 3.25634 35.7104 3.7368 36.0824 4.36449C36.4543 4.98443 36.6403 5.71674 36.6403 6.56141C36.6403 7.40608 36.4737 8.12676 36.1405 8.72346C35.8073 9.3124 35.3849 9.76961 34.8735 10.0951C34.362 10.4128 33.8428 10.591 33.3159 10.6298C33.8661 10.6453 34.4318 10.7886 35.013 11.0599C35.5942 11.3233 36.0824 11.7534 36.4776 12.3501C36.8728 12.9391 37.0704 13.7256 37.0704 14.7098C37.0704 15.6397 36.8805 16.4727 36.5008 17.2089C36.1289 17.9373 35.5283 18.5147 34.6991 18.9409C33.8699 19.3593 32.7618 19.5686 31.3747 19.5686H24.6328V2.4233H31.4096ZM28.0851 10.3624L26.8879 9.35115H30.3053C31.2197 9.35115 31.9055 9.15741 32.3627 8.76995C32.8199 8.37474 33.0485 7.84391 33.0485 7.17747C33.0485 6.72802 32.9517 6.35993 32.7579 6.0732C32.5642 5.77873 32.2775 5.56175 31.8978 5.42227C31.518 5.28278 31.0492 5.21303 30.4913 5.21303H26.4578L28.0851 3.4927V10.3624ZM30.6772 16.7672C31.5607 16.7672 32.231 16.5657 32.6882 16.1628C33.1531 15.752 33.3856 15.198 33.3856 14.5005C33.3856 14.1053 33.3159 13.7605 33.1764 13.466C33.0447 13.1715 32.8548 12.9274 32.6068 12.7337C32.3588 12.5322 32.0566 12.3811 31.7002 12.2804C31.3514 12.1719 30.964 12.1176 30.5378 12.1176H26.8879L28.0851 11.118V18.4875L26.4578 16.7672H30.6772Z" fill="#FEFEFE"/>
<path d="M43.2456 1.40039V19.5686H39.6887V1.40039H43.2456Z" fill="#FEFEFE"/>
<path d="M50.3055 19.8243C49.4066 19.8243 48.6045 19.6809 47.8993 19.3942C47.2019 19.1075 46.6556 18.6929 46.2604 18.1504C45.8652 17.608 45.6676 16.9493 45.6676 16.1744C45.6676 15.2987 45.9078 14.5858 46.3882 14.0356C46.8687 13.4854 47.5041 13.0669 48.2946 12.7802C49.0927 12.4857 49.9568 12.292 50.8867 12.199C52.2428 12.0673 53.1766 11.9472 53.6881 11.8387C54.2073 11.7302 54.4669 11.5403 54.4669 11.2691C54.4669 11.2613 54.4669 11.2536 54.4669 11.2458C54.4669 10.7886 54.246 10.4283 53.8043 10.1648C53.3703 9.90135 52.762 9.76961 51.9793 9.76961C51.1502 9.76961 50.5147 9.92072 50.073 10.2229C49.6391 10.5174 49.4221 10.9707 49.4221 11.5829H45.8768C45.8768 10.591 46.1441 9.75411 46.6788 9.07217C47.2213 8.39024 47.9536 7.87491 48.8758 7.52619C49.7979 7.16973 50.8402 6.99149 52.0026 6.99149C53.0875 6.99149 54.091 7.1581 55.0132 7.49132C55.9353 7.81679 56.6754 8.30887 57.2333 8.96756C57.799 9.62625 58.0819 10.4632 58.0819 11.4783C58.0819 11.6411 58.0819 11.8038 58.0819 11.9665C58.0819 12.1215 58.0819 12.2804 58.0819 12.4431V16.8137C58.0819 17.1314 58.0896 17.4375 58.1051 17.732C58.1284 18.0187 58.1749 18.2822 58.2446 18.5224C58.3221 18.7936 58.419 19.0184 58.5352 19.1966C58.6515 19.3748 58.7483 19.4988 58.8258 19.5686H55.2805C55.2263 19.5143 55.141 19.402 55.0248 19.2315C54.9163 19.061 54.8233 18.8634 54.7458 18.6387C54.6528 18.3674 54.5831 18.0962 54.5366 17.825C54.4979 17.546 54.4785 17.2205 54.4785 16.8486L55.2224 17.36C55.0054 17.8715 54.6528 18.3132 54.1646 18.6851C53.6842 19.0494 53.1107 19.3322 52.4443 19.5337C51.7856 19.7274 51.0727 19.8243 50.3055 19.8243ZM51.2703 17.1275C51.836 17.1275 52.3629 17.0268 52.8511 16.8253C53.3471 16.6161 53.75 16.2906 54.06 15.8489C54.37 15.4072 54.525 14.8299 54.525 14.117V12.8732L55.42 13.745C54.9086 13.931 54.3157 14.086 53.6416 14.2099C52.9751 14.3262 52.3087 14.4192 51.6422 14.4889C50.8518 14.5664 50.259 14.702 49.8638 14.8958C49.4763 15.0817 49.2826 15.3995 49.2826 15.8489C49.2826 16.2751 49.4492 16.5967 49.7824 16.8137C50.1156 17.0229 50.6116 17.1275 51.2703 17.1275Z" fill="#FEFEFE"/>
<path d="M63.869 16.744H70.5643V19.5686H60.0098V16.8951L66.5425 9.90909L66.6238 10.037H60.2423V7.22397H70.4249V9.89747L63.9503 16.8602L63.869 16.744Z" fill="#FEFEFE"/>
<path d="M78.5494 19.8359C77.2165 19.8359 76.0425 19.5608 75.0274 19.0106C74.0122 18.4604 73.2179 17.7049 72.6445 16.744C72.0788 15.7753 71.7959 14.6594 71.7959 13.3963C71.7959 12.1409 72.0788 11.0327 72.6445 10.0718C73.2179 9.10317 74.0122 8.35149 75.0274 7.81679C76.0425 7.27434 77.2165 7.00312 78.5494 7.00312C79.8823 7.00312 81.0563 7.27434 82.0715 7.81679C83.0866 8.35149 83.877 9.10317 84.4427 10.0718C85.0162 11.0327 85.3029 12.1409 85.3029 13.3963C85.3029 14.6594 85.0162 15.7753 84.4427 16.744C83.877 17.7049 83.0866 18.4604 82.0715 19.0106C81.0563 19.5608 79.8823 19.8359 78.5494 19.8359ZM78.5494 16.9764C79.1771 16.9764 79.7234 16.8292 80.1884 16.5347C80.6533 16.2403 81.0137 15.8257 81.2694 15.291C81.5251 14.7485 81.653 14.117 81.653 13.3963C81.653 12.6756 81.5251 12.0518 81.2694 11.5248C81.0137 10.9901 80.6533 10.5794 80.1884 10.2927C79.7234 10.006 79.1771 9.8626 78.5494 9.8626C77.9295 9.8626 77.3832 10.006 76.9104 10.2927C76.4455 10.5794 76.0851 10.9901 75.8294 11.5248C75.5737 12.0518 75.4458 12.6756 75.4458 13.3963C75.4458 14.117 75.5737 14.7485 75.8294 15.291C76.0851 15.8257 76.4455 16.2403 76.9104 16.5347C77.3832 16.8292 77.9295 16.9764 78.5494 16.9764Z" fill="#FEFEFE"/>
<path d="M96.2485 19.5686V14.3262C96.2485 14.0317 96.2485 13.7644 96.2485 13.5241C96.2485 13.2839 96.2485 13.0669 96.2485 12.8732C96.2485 12.3617 96.1826 11.8968 96.0508 11.4783C95.9191 11.0521 95.6828 10.7111 95.3418 10.4554C95.0008 10.1997 94.5087 10.0718 93.8656 10.0718C93.3076 10.0718 92.8233 10.1997 92.4126 10.4554C92.0096 10.7111 91.6996 11.0676 91.4827 11.5248C91.2657 11.982 91.1572 12.509 91.1572 13.1057L90.1575 12.385C90.1575 11.3156 90.39 10.3779 90.855 9.572C91.3199 8.76608 91.9476 8.13451 92.738 7.6773C93.5362 7.2201 94.4196 6.99149 95.3883 6.99149C96.4034 6.99149 97.2365 7.19685 97.8874 7.60756C98.5461 8.01052 99.0343 8.57622 99.352 9.30465C99.6775 10.0253 99.8402 10.87 99.8402 11.8387C99.8402 12.2339 99.8402 12.6756 99.8402 13.1638C99.8402 13.652 99.8402 14.1518 99.8402 14.6633V19.5686H96.2485ZM87.5538 19.5686V7.22397H91.1572V19.5686H87.5538Z" fill="#FEFEFE"/>
<path d="M118.3 19.5686L115.719 7.22397H118.346L120.938 18.5457L120.346 18.5689L121.961 7.22397H125.681L123.217 19.5686H118.3ZM109.721 19.5686L107.257 7.22397H110.977L112.592 18.5689L112.011 18.5457L114.58 7.22397H117.207L114.65 19.5686H109.721Z" fill="#FEFEFE"/>
<path d="M128.69 14.4773V12.0944H136.873L136.524 12.6988C136.524 12.6368 136.524 12.5787 136.524 12.5245C136.524 12.4625 136.524 12.4044 136.524 12.3501C136.524 11.9084 136.42 11.4861 136.211 11.0831C136.001 10.6724 135.676 10.3392 135.234 10.0835C134.8 9.81998 134.242 9.68824 133.56 9.68824C132.878 9.68824 132.289 9.83548 131.793 10.1299C131.305 10.4167 130.929 10.8313 130.666 11.3737C130.41 11.9162 130.282 12.571 130.282 13.3381C130.282 14.1286 130.406 14.8066 130.654 15.3723C130.91 15.9303 131.286 16.3604 131.782 16.6626C132.286 16.9648 132.909 17.1159 133.653 17.1159C134.134 17.1159 134.548 17.0733 134.897 16.9881C135.246 16.8951 135.529 16.7788 135.746 16.6393C135.97 16.4999 136.141 16.3449 136.257 16.1744C136.373 16.0039 136.443 15.8373 136.466 15.6746H140.023C139.977 16.1938 139.798 16.7052 139.489 17.2089C139.179 17.7049 138.748 18.1543 138.198 18.5573C137.648 18.9525 136.978 19.2663 136.187 19.4988C135.405 19.7313 134.51 19.8475 133.502 19.8475C132.138 19.8475 130.949 19.5763 129.934 19.0339C128.918 18.4837 128.132 17.7281 127.574 16.7672C127.016 15.7985 126.737 14.6826 126.737 13.4195C126.737 12.1409 127.02 11.0211 127.586 10.0602C128.159 9.09155 128.953 8.33987 129.969 7.80517C130.991 7.26272 132.173 6.99149 133.514 6.99149C134.885 6.99149 136.071 7.26659 137.071 7.81679C138.07 8.35924 138.841 9.12254 139.384 10.1067C139.926 11.0831 140.198 12.2223 140.198 13.5241C140.198 13.7179 140.194 13.9038 140.186 14.0821C140.178 14.2603 140.167 14.392 140.151 14.4773H128.69Z" fill="#FEFEFE"/>
<path d="M149.877 19.8359C148.901 19.8359 148.006 19.5763 147.192 19.0571C146.378 18.5379 145.727 17.8366 145.239 16.9532C144.751 16.062 144.507 15.0624 144.507 13.9542C144.507 13.9232 144.507 13.8961 144.507 13.8728C144.507 13.8419 144.507 13.807 144.507 13.7682L146.065 13.7334C146.065 13.7566 146.065 13.7799 146.065 13.8031C146.065 13.8264 146.065 13.8496 146.065 13.8728C146.065 14.4463 146.204 14.95 146.483 15.384C146.762 15.8102 147.122 16.1395 147.564 16.372C148.006 16.6045 148.467 16.7207 148.947 16.7207C149.738 16.7207 150.424 16.4495 151.005 15.907C151.594 15.3568 151.888 14.5005 151.888 13.3381C151.888 12.1758 151.598 11.3311 151.016 10.8041C150.435 10.2694 149.745 10.0021 148.947 10.0021C148.467 10.0021 148.006 10.1183 147.564 10.3508C147.122 10.5755 146.762 10.8971 146.483 11.3156C146.204 11.734 146.065 12.2339 146.065 12.8151L144.507 12.7221C144.507 11.6062 144.751 10.622 145.239 9.76961C145.727 8.90944 146.378 8.23525 147.192 7.74705C148.006 7.25109 148.901 7.00312 149.877 7.00312C150.877 7.00312 151.811 7.24722 152.679 7.73542C153.546 8.22363 154.248 8.94044 154.782 9.88585C155.325 10.8313 155.596 11.982 155.596 13.3381C155.596 14.7563 155.333 15.9497 154.806 16.9183C154.279 17.8792 153.581 18.6077 152.713 19.1036C151.846 19.5918 150.9 19.8359 149.877 19.8359ZM142.45 19.5686V1.40039H146.065V19.5686H142.45Z" fill="#FEFEFE"/>
<path d="M0 0.393683V4.4185C0 4.69111 0.152296 4.94479 0.395971 5.06973L8.14407 9.10212C8.42201 9.246 8.76087 9.22707 9.01977 9.04911L11.5479 7.31121C12.0429 6.97045 12.001 6.23591 11.4756 5.94815L0.582534 0.0491324C0.319823 -0.0947462 0 0.0945668 0 0.393683Z" fill="#FEFEFE"/>
<path d="M0.0114218 7.88285L0 11.1012C0 11.37 0.148489 11.6199 0.384549 11.7524L12.6368 18.0717C12.8919 18.2156 13.2384 18.314 13.4783 18.1437L15.7932 16.4966C16.2539 16.171 16.212 15.4819 15.717 15.2169L1.10415 7.3452C0.593957 7.0688 0.00761437 7.30734 0.0114218 7.88285Z" fill="#FEFEFE"/>
<path d="M0.0117188 14.5883V17.89C0.0117188 18.2497 0.209704 18.5791 0.52572 18.7532L5.62004 21.5134C5.93225 21.68 6.30919 21.6687 6.60997 21.4831L9.67494 19.7112C10.0747 19.4613 10.1699 18.8593 9.74728 18.6548L0.746551 14.1302C0.407691 13.9674 0.0117188 14.2135 0.0117188 14.5883Z" fill="#FEFEFE"/>
</svg>
